<mxfile host="app.diagrams.net" modified="2023-06-05T18:25:40.342Z" agent="Mozilla/5.0 (Windows NT 10.0; Win64; x64) AppleWebKit/537.36 (KHTML, like Gecko) Chrome/113.0.0.0 Safari/537.36" etag="G-7szdoSYFwRHqLcRDnd" version="21.3.7" type="github">
  <diagram name="Página-1" id="hHZQKaVx3r7QKWwvkuFB">
    <mxGraphModel dx="1114" dy="584" grid="1" gridSize="10" guides="1" tooltips="1" connect="1" arrows="1" fold="1" page="1" pageScale="1" pageWidth="827" pageHeight="1169" math="0" shadow="0">
      <root>
        <mxCell id="0" />
        <mxCell id="1" parent="0" />
        <mxCell id="kRPTSru2SKUkncLZ3vir-1" value="Atração" style="swimlane;fontStyle=1;align=center;verticalAlign=top;childLayout=stackLayout;horizontal=1;startSize=26;horizontalStack=0;resizeParent=1;resizeParentMax=0;resizeLast=0;collapsible=1;marginBottom=0;whiteSpace=wrap;html=1;fillColor=#f5f5f5;gradientColor=#b3b3b3;strokeColor=#666666;" parent="1" vertex="1">
          <mxGeometry x="620" y="40" width="160" height="160" as="geometry" />
        </mxCell>
        <mxCell id="kRPTSru2SKUkncLZ3vir-2" value="- cod_atracao:&amp;nbsp; String&lt;br&gt;- cod_atracao:&amp;nbsp; String&lt;br&gt;- nome: String&lt;br&gt;- data: String&lt;br&gt;- hoaraio: String&amp;nbsp;&lt;br&gt;- genero: String" style="text;strokeColor=none;fillColor=none;align=left;verticalAlign=top;spacingLeft=4;spacingRight=4;overflow=hidden;rotatable=0;points=[[0,0.5],[1,0.5]];portConstraint=eastwest;whiteSpace=wrap;html=1;" parent="kRPTSru2SKUkncLZ3vir-1" vertex="1">
          <mxGeometry y="26" width="160" height="94" as="geometry" />
        </mxCell>
        <mxCell id="kRPTSru2SKUkncLZ3vir-3" value="" style="line;strokeWidth=1;fillColor=none;align=left;verticalAlign=middle;spacingTop=-1;spacingLeft=3;spacingRight=3;rotatable=0;labelPosition=right;points=[];portConstraint=eastwest;strokeColor=inherit;" parent="kRPTSru2SKUkncLZ3vir-1" vertex="1">
          <mxGeometry y="120" width="160" height="40" as="geometry" />
        </mxCell>
        <mxCell id="kRPTSru2SKUkncLZ3vir-5" value="Cliente" style="swimlane;fontStyle=1;align=center;verticalAlign=top;childLayout=stackLayout;horizontal=1;startSize=26;horizontalStack=0;resizeParent=1;resizeParentMax=0;resizeLast=0;collapsible=1;marginBottom=0;whiteSpace=wrap;html=1;fillColor=#f5f5f5;gradientColor=#b3b3b3;strokeColor=#666666;" parent="1" vertex="1">
          <mxGeometry x="60" y="40" width="160" height="130" as="geometry" />
        </mxCell>
        <mxCell id="kRPTSru2SKUkncLZ3vir-6" value="&lt;div&gt;- cpf: long&lt;/div&gt;&lt;div&gt;- nome: String&lt;/div&gt;&lt;div&gt;&lt;span style=&quot;background-color: initial;&quot;&gt;- telefone: long&lt;/span&gt;&lt;/div&gt;&lt;div&gt;&lt;span style=&quot;&quot;&gt;- String senha&lt;/span&gt;&lt;/div&gt;" style="text;strokeColor=none;fillColor=none;align=left;verticalAlign=top;spacingLeft=4;spacingRight=4;overflow=hidden;rotatable=0;points=[[0,0.5],[1,0.5]];portConstraint=eastwest;whiteSpace=wrap;html=1;" parent="kRPTSru2SKUkncLZ3vir-5" vertex="1">
          <mxGeometry y="26" width="160" height="64" as="geometry" />
        </mxCell>
        <mxCell id="kRPTSru2SKUkncLZ3vir-7" value="" style="line;strokeWidth=1;fillColor=none;align=left;verticalAlign=middle;spacingTop=-1;spacingLeft=3;spacingRight=3;rotatable=0;labelPosition=right;points=[];portConstraint=eastwest;strokeColor=inherit;" parent="kRPTSru2SKUkncLZ3vir-5" vertex="1">
          <mxGeometry y="90" width="160" height="40" as="geometry" />
        </mxCell>
        <mxCell id="kRPTSru2SKUkncLZ3vir-9" value="Favoritos" style="swimlane;fontStyle=1;align=center;verticalAlign=top;childLayout=stackLayout;horizontal=1;startSize=26;horizontalStack=0;resizeParent=1;resizeParentMax=0;resizeLast=0;collapsible=1;marginBottom=0;whiteSpace=wrap;html=1;fillColor=#f5f5f5;gradientColor=#b3b3b3;strokeColor=#666666;" parent="1" vertex="1">
          <mxGeometry x="40" y="280" width="160" height="120" as="geometry" />
        </mxCell>
        <mxCell id="kRPTSru2SKUkncLZ3vir-10" value="&lt;div&gt;- favorito: boolean&lt;/div&gt;&lt;div&gt;- cli: Cliente&lt;span style=&quot;&quot;&gt;&lt;/span&gt;&lt;/div&gt;&lt;div&gt;&lt;span style=&quot;white-space: pre;&quot;&gt;- &lt;/span&gt;at: Atracao&lt;/div&gt;" style="text;strokeColor=none;fillColor=none;align=left;verticalAlign=top;spacingLeft=4;spacingRight=4;overflow=hidden;rotatable=0;points=[[0,0.5],[1,0.5]];portConstraint=eastwest;whiteSpace=wrap;html=1;" parent="kRPTSru2SKUkncLZ3vir-9" vertex="1">
          <mxGeometry y="26" width="160" height="44" as="geometry" />
        </mxCell>
        <mxCell id="kRPTSru2SKUkncLZ3vir-11" value="" style="line;strokeWidth=1;fillColor=none;align=left;verticalAlign=middle;spacingTop=-1;spacingLeft=3;spacingRight=3;rotatable=0;labelPosition=right;points=[];portConstraint=eastwest;strokeColor=inherit;" parent="kRPTSru2SKUkncLZ3vir-9" vertex="1">
          <mxGeometry y="70" width="160" height="50" as="geometry" />
        </mxCell>
        <mxCell id="kRPTSru2SKUkncLZ3vir-21" style="edgeStyle=orthogonalEdgeStyle;rounded=0;orthogonalLoop=1;jettySize=auto;html=1;exitX=0.5;exitY=1;exitDx=0;exitDy=0;entryX=0.5;entryY=0;entryDx=0;entryDy=0;endArrow=open;endFill=0;" parent="1" source="kRPTSru2SKUkncLZ3vir-13" target="kRPTSru2SKUkncLZ3vir-17" edge="1">
          <mxGeometry relative="1" as="geometry" />
        </mxCell>
        <mxCell id="kRPTSru2SKUkncLZ3vir-13" value="Compra" style="swimlane;fontStyle=1;align=center;verticalAlign=top;childLayout=stackLayout;horizontal=1;startSize=26;horizontalStack=0;resizeParent=1;resizeParentMax=0;resizeLast=0;collapsible=1;marginBottom=0;whiteSpace=wrap;html=1;fillColor=#f5f5f5;gradientColor=#b3b3b3;strokeColor=#666666;" parent="1" vertex="1">
          <mxGeometry x="340" y="40" width="160" height="160" as="geometry" />
        </mxCell>
        <mxCell id="kRPTSru2SKUkncLZ3vir-14" value="&lt;div&gt;- id: int&amp;nbsp;&lt;/div&gt;&lt;div&gt;&lt;span style=&quot;background-color: initial;&quot;&gt;- data: date&lt;/span&gt;&lt;/div&gt;&lt;div&gt;&lt;span style=&quot;&quot;&gt;&lt;/span&gt;&lt;/div&gt;&lt;div&gt;&lt;span style=&quot;white-space: pre;&quot;&gt;- &lt;/span&gt;valor: float&lt;/div&gt;&lt;div&gt;&lt;span style=&quot;white-space: pre;&quot;&gt;- &lt;/span&gt;cod_cadeira: int&lt;/div&gt;&lt;div&gt;&lt;span style=&quot;white-space: pre;&quot;&gt;- &lt;/span&gt;cli: Cliente&lt;/div&gt;&lt;div&gt;&lt;span style=&quot;background-color: initial;&quot;&gt;- at: Atracao&lt;/span&gt;&lt;/div&gt;" style="text;strokeColor=none;fillColor=none;align=left;verticalAlign=top;spacingLeft=4;spacingRight=4;overflow=hidden;rotatable=0;points=[[0,0.5],[1,0.5]];portConstraint=eastwest;whiteSpace=wrap;html=1;" parent="kRPTSru2SKUkncLZ3vir-13" vertex="1">
          <mxGeometry y="26" width="160" height="94" as="geometry" />
        </mxCell>
        <mxCell id="kRPTSru2SKUkncLZ3vir-15" value="" style="line;strokeWidth=1;fillColor=none;align=left;verticalAlign=middle;spacingTop=-1;spacingLeft=3;spacingRight=3;rotatable=0;labelPosition=right;points=[];portConstraint=eastwest;strokeColor=inherit;" parent="kRPTSru2SKUkncLZ3vir-13" vertex="1">
          <mxGeometry y="120" width="160" height="40" as="geometry" />
        </mxCell>
        <mxCell id="kRPTSru2SKUkncLZ3vir-17" value="Ingresso" style="swimlane;fontStyle=1;align=center;verticalAlign=top;childLayout=stackLayout;horizontal=1;startSize=26;horizontalStack=0;resizeParent=1;resizeParentMax=0;resizeLast=0;collapsible=1;marginBottom=0;whiteSpace=wrap;html=1;fillColor=#f5f5f5;gradientColor=#b3b3b3;strokeColor=#666666;" parent="1" vertex="1">
          <mxGeometry x="340" y="320" width="160" height="120" as="geometry" />
        </mxCell>
        <mxCell id="kRPTSru2SKUkncLZ3vir-18" value="&lt;div&gt;- cod_ingresso: int&lt;/div&gt;&lt;div&gt;&lt;span style=&quot;background-color: initial;&quot;&gt;- com: Compra&lt;/span&gt;&lt;br&gt;&lt;/div&gt;&lt;div&gt;&lt;span style=&quot;white-space: pre;&quot;&gt;- &lt;/span&gt;at: Atracao&lt;/div&gt;" style="text;strokeColor=none;fillColor=none;align=left;verticalAlign=top;spacingLeft=4;spacingRight=4;overflow=hidden;rotatable=0;points=[[0,0.5],[1,0.5]];portConstraint=eastwest;whiteSpace=wrap;html=1;" parent="kRPTSru2SKUkncLZ3vir-17" vertex="1">
          <mxGeometry y="26" width="160" height="44" as="geometry" />
        </mxCell>
        <mxCell id="kRPTSru2SKUkncLZ3vir-19" value="" style="line;strokeWidth=1;fillColor=none;align=left;verticalAlign=middle;spacingTop=-1;spacingLeft=3;spacingRight=3;rotatable=0;labelPosition=right;points=[];portConstraint=eastwest;strokeColor=inherit;" parent="kRPTSru2SKUkncLZ3vir-17" vertex="1">
          <mxGeometry y="70" width="160" height="50" as="geometry" />
        </mxCell>
      </root>
    </mxGraphModel>
  </diagram>
</mxfile>
